<?xml version="1.0" encoding="iso-8859-1"?>
<!-- Generator: Adobe Illustrator 19.0.0, SVG Export Plug-In . SVG Version: 6.00 Build 0)  -->
<svg version="1.1" id="Capa_1" xmlns="http://www.w3.org/2000/svg" xmlns:xlink="http://www.w3.org/1999/xlink" x="0px" y="0px"
	 viewBox="0 0 496 496" style="enable-background:new 0 0 496 496;" xml:space="preserve">
<circle style="fill:#39C3FC;" cx="200" cy="296" r="192"/>
<path style="fill:#148CE0;" d="M200,440c-97.904,0-178.632-73.296-190.456-168C8.568,279.872,8,287.864,8,296
	c0,106.04,85.96,192,192,192s192-85.96,192-192c0-8.136-0.568-16.128-1.544-24C378.632,366.704,297.904,440,200,440z"/>
<path style="fill:#FB5968;" d="M472,200L472,200c-8.84,0-16-7.16-16-16V24c0-8.84,7.16-16,16-16l0,0c8.84,0,16,7.16,16,16v160
	C488,192.84,480.84,200,472,200z"/>
<g>
	<path style="fill:#ECECEC;" d="M264,240c0,13.256,10.744,24,24,24l0,0c13.256,0,24-10.744,24-24v-27.152
		c0-18.808,5.568-37.192,16-52.848l0,0v-16h-64V240z"/>
	<path style="fill:#ECECEC;" d="M417.88,35.728C374.208,49.168,328.768,56,283.072,56H248c-8.84,0-16,7.16-16,16v64
		c0,8.84,7.16,16,16,16h35.072c45.696,0,91.136,6.832,134.808,20.272L456,184V24L417.88,35.728z"/>
</g>
<path style="fill:#B6C1CE;" d="M283.072,128H248c-8.84,0-16-7.16-16-16v24c0,8.84,7.16,16,16,16h35.072
	c45.696,0,91.136,6.832,134.808,20.272L456,184v-24l-38.12-11.728C374.208,134.832,328.768,128,283.072,128z"/>
<path style="fill:#ECECEC;" d="M232,136c-17.672,0-32-14.328-32-32s14.328-32,32-32V136z"/>
<g>
	<rect x="312" y="88" style="fill:#FB5968;" width="64" height="32"/>
	<path style="fill:#FB5968;" d="M247.016,152H280V56h-32.984C238.72,56,232,62.72,232,71.016v65.976
		C232,145.28,238.72,152,247.016,152z"/>
</g>
<path d="M472,0c-11.08,0-20.344,7.584-23.088,17.816l-33.376,10.272C372.568,41.304,328.008,48,283.072,48H248
	c-10.664,0-19.624,7.04-22.736,16.68c-16.288,2.792-29.256,15.36-32.472,31.504C85.84,100,0,188.136,0,296
	c0,110.28,89.72,200,200,200s200-89.72,200-200c0-48.144-17.584-94.656-48.8-130.8c21.736,3.328,43.232,8.224,64.336,14.72
	l33.376,10.272C451.656,200.416,460.92,208,472,208c13.232,0,24-10.768,24-24V24C496,10.768,485.232,0,472,0z M383.792,288h-80.024
	c-0.184-6.656-0.576-13.216-1.216-19.664C312.864,263.016,320,252.376,320,240v-27.16c0-15.792,4.28-31.104,12.328-44.616
	C363.424,200.48,381.824,243.224,383.792,288z M225.264,143.32C228.376,152.96,237.336,160,248,160h8v42.512
	c-15.032,3.088-31.112,4.856-48,5.28v-72C212.992,139.576,218.84,142.216,225.264,143.32z M286.816,271.88
	c0.48,5.304,0.8,10.672,0.96,16.12H208v-64.208c16.784-0.4,32.856-2.064,48-4.968V240C256,257.24,269.728,271.24,286.816,271.88z
	 M192,119.608v88.184c-23.712-0.6-43.824-3.72-60.52-8.152C149.8,157.96,176.608,131.992,192,119.608z M192,223.8V288h-79.824
	c0.832-27.976,5.904-52.336,13.328-73.272C143.808,219.72,165.904,223.184,192,223.8z M96.176,288H16.2
	c1.752-40.72,16.8-78.048,40.904-107.752c9.048,7.952,26.072,20.08,52.856,29.576C102.224,232.152,96.984,258.12,96.176,288z
	 M96.176,304c0.808,29.904,6.056,55.888,13.8,78.224c-26.904,9.56-43.928,21.72-52.856,29.544C33,382.056,17.952,344.728,16.2,304
	H96.176z M112.288,304H192v64.2c-26.136,0.624-48.256,4.128-66.592,9.152C117.408,354.6,113.04,330.096,112.288,304z M192,384.2
	v88.256c-8.88-7.072-21.544-18.584-34.12-34.936c-10.784-14.024-19.584-29.112-26.584-45.088
	C148.032,387.96,168.224,384.808,192,384.2z M208,472.384V384.2c23.68,0.608,43.808,3.736,60.504,8.184
	C250.192,434.056,223.384,460.016,208,472.384z M208,368.2V304h79.824c-0.832,27.992-5.912,52.368-13.344,73.32
	C256.168,372.312,234.088,368.824,208,368.2z M303.824,304h79.968c-1.752,40.728-16.8,78.056-40.912,107.768
	c-8.928-7.816-25.952-19.984-52.856-29.544C297.768,359.888,303.016,333.904,303.824,304z M304,212.84V240c0,8.824-7.176,16-16,16
	s-16-7.176-16-16v-80h11.072c11.6,0,23.176,0.464,34.712,1.352C308.768,177.016,304,194.672,304,212.84z M248,64h24v80h-24
	c-4.416,0-8-3.592-8-8v-8h16v-16h-16V96h16V80h-16v-8C240,67.592,243.584,64,248,64z M224,81.472v45.048
	c-9.288-3.312-16-12.112-16-22.528S214.712,84.784,224,81.472z M173.632,113.92c-17.392,15.352-41.216,41.672-57.88,80.856
	c-25.016-8.84-40.488-19.984-48.008-26.496C95.44,139.6,132.328,119.872,173.632,113.92z M67.744,423.736
	c7.4-6.392,22.912-17.56,48.024-26.456c16.664,39.152,40.464,65.456,57.856,80.8C132.328,472.128,95.44,452.4,67.744,423.736z
	 M226.376,478.08c17.384-15.352,41.192-41.648,57.856-80.8c25.112,8.888,40.624,20.064,48.024,26.456
	C304.56,452.4,267.672,472.128,226.376,478.08z M480,184c0,4.408-3.584,8-8,8s-8-3.592-8-8V72h-16v101.168l-27.768-8.544
	c-42.912-13.2-87.376-20.064-132.232-20.536V63.912c44.856-0.472,89.32-7.328,132.232-20.536L448,34.832V56h16V24
	c0-4.408,3.584-8,8-8s8,3.592,8,8V184z"/>
<path d="M304,128h80V80h-80V128z M368,112h-16V96h16V112z M320,96h16v16h-16V96z"/>
<g>
</g>
<g>
</g>
<g>
</g>
<g>
</g>
<g>
</g>
<g>
</g>
<g>
</g>
<g>
</g>
<g>
</g>
<g>
</g>
<g>
</g>
<g>
</g>
<g>
</g>
<g>
</g>
<g>
</g>
</svg>
