<?xml version="1.0"?>
<svg xmlns="http://www.w3.org/2000/svg" viewBox="0 0 512 512" width="512" height="512"><g id="Filled_outline" data-name="Filled outline"><path d="M176,488H24V342.868A94.868,94.868,0,0,1,118.868,248h0a94.869,94.869,0,0,1,91.744,70.724L232,400H200v64A24,24,0,0,1,176,488Z" style="fill:#d75246"/><path d="M336,488H488V342.868A94.868,94.868,0,0,0,393.132,248h0a94.869,94.869,0,0,0-91.744,70.724L280,400h32v64A24,24,0,0,0,336,488Z" style="fill:#348fd9"/><path d="M64,224h40v64l64-64h56a40,40,0,0,0,40-40V64a40,40,0,0,0-40-40H64A40,40,0,0,0,24,64V184A40,40,0,0,0,64,224Z" style="fill:#ff9821"/><path d="M448,248H392v56l-64-56H296a40,40,0,0,1-40-40V88a40,40,0,0,1,40-40H448a40,40,0,0,1,40,40V208A40,40,0,0,1,448,248Z" style="fill:#4db7e5"/><path d="M384,80h-8a24,24,0,0,0-24,24v16H304a16,16,0,0,0-16,16h0a16,16,0,0,0,16,16h0a16,16,0,0,0-16,16h0a16,16,0,0,0,16,16h0a16,16,0,0,0-16,16h0a16,16,0,0,0,16,16h80Z" style="fill:#fec9a3"/><rect x="384" y="120" width="64" height="96" style="fill:#4c5985"/><path d="M128,192h8a24,24,0,0,0,24-24V152h48a16,16,0,0,0,16-16h0a16,16,0,0,0-16-16h0a16,16,0,0,0,16-16h0a16,16,0,0,0-16-16h0a16,16,0,0,0,16-16h0a16,16,0,0,0-16-16H128Z" style="fill:#fec9a3"/><rect x="64" y="56" width="64" height="96" transform="translate(192 208) rotate(180)" style="fill:#4c5985"/><path d="M79.206,247.926l6.172,14.762A87,87,0,0,0,36.7,314.6l-15.131-5.2A103.017,103.017,0,0,1,79.206,247.926ZM24,496H176a32.036,32.036,0,0,0,32-32V408h24a8,8,0,0,0,7.736-10.036l-21.389-81.282a102.958,102.958,0,0,0-54.847-66.5L156.555,264.6a86.952,86.952,0,0,1,46.319,56.161L221.622,392H200a8,8,0,0,0-8,8v16.242c-16.992,1.23-32.826,7.366-45.121,17.612l10.242,12.292c9.3-7.749,21.748-12.639,34.879-13.845V464a16.019,16.019,0,0,1-16,16H32V342.87a87.893,87.893,0,0,1,1.061-13.626l-15.8-2.488A103.962,103.962,0,0,0,16,342.87V488A8,8,0,0,0,24,496ZM136,336a24,24,0,1,1-24,24A24.027,24.027,0,0,1,136,336Zm-8,24a8,8,0,1,0,8-8A8.009,8.009,0,0,0,128,360ZM480,480H336a16.019,16.019,0,0,1-16-16V440h1.373a62.214,62.214,0,0,0,44.283-18.343l-11.312-11.314A46.326,46.326,0,0,1,321.373,424H320V400a8,8,0,0,0-8-8H290.378l18.748-71.242A87.117,87.117,0,0,1,329.718,283.5l-11.676-10.939a103.169,103.169,0,0,0-24.389,44.126l-21.389,81.28A8,8,0,0,0,280,408h24v56a32.036,32.036,0,0,0,32,32H488a8,8,0,0,0,8-8V432H480ZM352,360a24,24,0,1,1,24,24A24.027,24.027,0,0,1,352,360Zm16,0a8,8,0,1,0,8-8A8.009,8.009,0,0,0,368,360ZM32,64A32.036,32.036,0,0,1,64,32H224a31.792,31.792,0,0,1,22.628,9.374L257.94,30.059A47.685,47.685,0,0,0,224,16H64A48.055,48.055,0,0,0,16,64V75H32ZM64,232H96v56a8,8,0,0,0,13.657,5.657L171.313,232H224a48.1,48.1,0,0,0,12.521-1.652L232.354,214.9A32.078,32.078,0,0,1,224,216H168a8,8,0,0,0-5.657,2.343L112,268.686V224a8,8,0,0,0-8-8H64a32.036,32.036,0,0,1-32-32V88H16v96A48.054,48.054,0,0,0,64,232Zm384.163,24A102.881,102.881,0,0,1,496,342.87V416H480V342.87a86.986,86.986,0,0,0-80-86.6V304a8,8,0,0,1-13.268,6.021L324.994,256H296a48.054,48.054,0,0,1-48-48V88a48.054,48.054,0,0,1,48-48H448a48.054,48.054,0,0,1,48,48V208A48.052,48.052,0,0,1,448.163,256ZM480,88a32.036,32.036,0,0,0-32-32H296a32.036,32.036,0,0,0-32,32V208a32.036,32.036,0,0,0,32,32h32a8,8,0,0,1,5.268,1.979L384,286.37V248a8,8,0,0,1,8-8h56a32.036,32.036,0,0,0,32-32Zm-24,32v96a8,8,0,0,1-8,8H408V208h32V128H392v88a8,8,0,0,1-8,8H304a23.988,23.988,0,0,1-17.874-40,23.958,23.958,0,0,1,0-32A23.988,23.988,0,0,1,304,112h40v-8a32.036,32.036,0,0,1,32-32h8a8,8,0,0,1,8,8v32h56A8,8,0,0,1,456,120ZM376,88a16.019,16.019,0,0,0-16,16v16a8,8,0,0,1-8,8H304a8,8,0,0,0,0,16,8,8,0,0,1,0,16,8,8,0,0,0,0,16,8,8,0,0,1,0,16,8,8,0,0,0,0,16h72Zm32,88v16h16V176ZM232,72a23.9,23.9,0,0,1-6.126,16,23.958,23.958,0,0,1,0,32A23.988,23.988,0,0,1,208,160H168v8a32.036,32.036,0,0,1-32,32h-8a8,8,0,0,1-8-8V64H72v80h32v16H64a8,8,0,0,1-8-8V56a8,8,0,0,1,8-8H208A24.027,24.027,0,0,1,232,72ZM200,88a8,8,0,0,1,8-8,8,8,0,0,0,0-16H136V184a16.019,16.019,0,0,0,16-16V152a8,8,0,0,1,8-8h48a8,8,0,0,0,0-16,8,8,0,0,1,0-16,8,8,0,0,0,0-16A8,8,0,0,1,200,88Zm-96,8V80H88V96Z"/></g></svg>
